<?xml version="1.0" encoding="UTF-8"?>
<svg id="Layer_1" data-name="Layer 1" xmlns="http://www.w3.org/2000/svg" viewBox="0 0 497.68 257.68">
  <defs>
    <style>
      .cls-1 {
        fill: #231f20;
      }
    </style>
  </defs>
  <path class="cls-1" d="M418.42,94.83c8.54-28.9,16.22-43.35,23.04-43.35,5.32,0,7.98,8.47,7.98,25.4l.07,6.98c0,8.08.26,13.67.78,16.77.52,3.1,1.46,4.65,2.83,4.65,2.07,0,4.42-2.63,7.06-7.91,1.7-3.39,23.61,11.93,35.56,17.22.48.21,12.76,34.66-31.06,43.3-118.87,23.43-375.87,10.69-374.74,7.66l.59-9.34c-1.59,4.81,261.33,11.95,373.64-5.03,37.97-5.74,25.43-35.34,23.59-36.28-10.83-5.48-23.39-15.57-25.89-10.96-4.19,7.73-7.94,11.6-11.27,11.6-3.06,0-5.21-2.37-6.44-7.1-1.24-4.73-1.86-12.93-1.86-24.59l-.04-4.96c0-6.31-.25-10.74-.76-13.31-.51-2.56-1.39-3.84-2.64-3.84-3.18,0-8.29,10.14-15.35,30.42-1.73,4.96-2.85,8.16-3.36,9.58-1.85,5.16-2.78,8.89-2.78,11.2,0,.92.16,1.81.47,2.66-1.4.92-2.58,1.39-3.54,1.39-2.43,0-3.65-2.15-3.65-6.46,0-1.23.31-6.77.94-16.62l.79-12.52c.36-5.31.54-9.43.54-12.35,0-4.08-.58-7.29-1.73-9.64.51-.27,1.35-.73,2.53-1.39,1.49-.84,2.68-1.27,3.57-1.27,1.88,0,2.82,2.19,2.82,6.58,0,2.31-.18,6.27-.54,11.89-.07,1.23-.14,2.41-.22,3.52l-.94,16.1Z"/>
  <path class="cls-1" d="M317.85,88.96c-2.84,7.88-6.34,14.58-10.51,20.09-4.16,5.51-7.79,8.27-10.87,8.27-2.35,0-4.24-1.4-5.65-4.22-1.41-2.81-2.11-6.55-2.11-11.22,0-9.3,2.1-17.5,6.31-24.57,4.21-7.07,9.07-10.61,14.6-10.61,3.35,0,6.98,1.4,10.89,4.19.58-2.77,2.93-4.15,7.05-4.15.27,0,.7.02,1.3.04-1.26,2.59-2.23,6.13-2.89,10.61l-.57,3.79c-.64,4.22-.96,9.16-.96,14.81,0,6.51,1.13,9.77,3.39,9.77,2.39,0,5.67-2.68,9.83-8.05,2.81-3.63,19.23-21.27,39.14-42.47,8-8.52,43.59.52,41.89,2.4l-5.99,2.8c-2.95-3.23-26.58-9.35-35.48.61-20.62,23.09-35.18,38.66-38.78,43.13-5.28,6.56-9.81,9.83-13.6,9.83-4.79,0-7.18-5.35-7.18-16.06,0-2.23.07-5.23.2-9.01ZM319.41,78.3c-4.66-4.07-8.54-6.11-11.63-6.11-3.35,0-6.25,2.73-8.69,8.18-2.44,5.46-3.66,11.93-3.66,19.42,0,6.01,1.47,9.01,4.4,9.01,3.17,0,9.25-9.34,18.22-28.01.11-.24.57-1.07,1.37-2.5Z"/>
  <path class="cls-1" d="M203.1,126.89c.52-2.63.78-5.75.78-9.35,0-8.13-1.64-18.31-4.93-30.54-1.53-5.77-2.87-9.69-4.01-11.74-1.14-2.06-2.9-3.76-5.28-5.1,2.77-2.63,5.05-3.95,6.86-3.95,3.45,0,6.74,4.94,9.86,14.83,4.11,12.93,6.16,25,6.16,36.2,17.2-20.43,25.8-34.44,25.8-42.01,0-1.07-.32-2.11-.94-3.11,1.54-.93,15.63-13.73,25.52-22.12,4.91-4.16,38.46,18.8,39.26,18.8,2.19,0-3.19,2.89-3.19,4.76,0,1.11-30.11-24-35.06-18.19-9.46,11.1-20.15,28.56-23.24,33.39-4.71,7.37-11.23,15.94-19.56,25.74-4.35,5.09-7.44,8.26-9.27,9.52-1.82,1.26-4.74,2.21-8.77,2.87Z"/>
  <path class="cls-1" d="M140.46,99.61c.06.54.09,1.03.09,1.46,0,6.56-1.97,12.27-5.92,17.15-3.95,4.88-8.57,7.32-13.87,7.32-4.05,0-7.35-1.46-9.9-4.37-2.55-2.91-3.82-6.7-3.82-11.35,0-5.28,1.65-9.87,4.94-13.75s7.18-5.82,11.65-5.82c.68,0,1.41.1,2.18.31-.5-1.02-.76-1.88-.76-2.59,0-1.09.33-2.13,1-3.13,4.92.45,9.01,3.29,12.27,8.51,3.34,2.56,6.83,3.84,10.46,3.84,1.64,0,19.13-27.15,30.56-44.3,2.88-4.32-.88-11.15-7-13.83-2.8-1.23-6.99,5.44-11.38,12.45-2.29,3.66,37.7,15.54,37.82,15.46l-4.41,7.33c-.09.07-38.02-18.49-37.12-21.78,2.36-8.61,12.49-18.16,14.85-17.12,7.76,3.41,14.84,14.5,11.44,19.6-11.89,17.83-31.91,46.16-34.28,46.16-2.24,0-5.95-.5-8.79-1.54ZM133.6,96.72c-1.67-.57-3.21-1.47-4.62-2.72-1.03-.24-1.88-.37-2.57-.37-3.43,0-6.46,1.74-9.11,5.21-2.65,3.47-3.97,7.43-3.98,11.87,0,3.22.8,5.87,2.4,7.94,1.6,2.07,3.66,3.11,6.18,3.12,3.4,0,6.34-1.94,8.79-5.8,2.46-3.87,3.69-8.47,3.69-13.83,0-1.86-.27-3.66-.79-5.41Z"/>
  <path class="cls-1" d="M47.85,72.77c0,.26,2.49,17.88,2.9,21.63,2.34,21.52,3.35,28.84,12.71,13.85s16.61-31.86,24.51-47.62c1.08-2.16,9.81-18.15,14.43-27.44,3.29-6.39,8.98-18.58,9.78-18.61.14,0,2.88.23,3.13.24,2.41.13-1.34,9.4-2.57,11.97s-5.69,11.09-11.7,24c-5.21,11.2-9.88,22.14-15.45,32.78-20.72,40.8-44.43,78.89-62.7,121.57-5.07,11.67-9.53,23.46-12.77,35.71-1.49,4.75-2.82,16.82-7.18,16.82-.63,0-2.58.11-2.87-1.49-.39-2.44,1.04-6.64,1.4-9.48,1.33-10.6,8.83-32.18,14.93-47.11,6.87-16.68,15.93-32.23,22.06-49.22,5.87-16.07,6.45-33.48,5.21-50.92-1.11-15.62-4.9-30.33-8.39-45.42-2.4-10.28-5.26-20.3-7.51-30.65-1.29-5.94-5.87-21.59-5.56-22.13l5.17-1.27c4.81,2.52,17.43,57.86,20.43,72.57l.04.2Z"/>
  <path class="cls-1" d="M340.45,33.15c33.06,30.52,9.31,110.13-34.32,119.65-11.72,2.38-22.34-1.89-28.92-11.78-12.95-20.96-9.07-48.81.37-71.75,7.29-16.51,18.9-33.62,35.98-40.46,9.4-3.59,19.06-2.24,26.77,4.24l.12.1ZM325.03,31.77c-20.21.77-34.65,27.6-42.22,47.04-6.97,18.87-10.46,42.92-.47,59.14,6.28,9.56,16.84,11.23,27.15,6.8,13.8-5.93,24.4-20.06,30.29-33.97,8.59-22,11.41-46.15,2.83-65.49-3.34-7.06-9.43-13.34-17.45-13.52h-.13Z"/>
  <path class="cls-1" d="M464.26,34.21c17.18,26.1,15.6,64.38-4.46,89.49-11.19,14.81-28.52,28.23-46.71,29.69-25.61,1.88-36.34-22.59-33.48-46.84,1.87-17.77,8.83-34.72,17.65-50.17,14.2-25.47,43.91-54.56,66.89-22.34l.11.16ZM451.38,30.24c-9.82-11.86-20.03-4.86-28.57,3.75-14.68,14.62-27.87,39.45-33.38,60.47-3.71,14.71-4.75,29.97,2.48,42.35,12.85,19.24,36.49,11.02,52.1-4.41,13.12-13,21.75-30.73,23.07-49.19,1.11-16.92-4.95-39.68-15.11-52.19l-.58-.77Z"/>
  <path class="cls-1" d="M229.65,45.26c6.37,3.27,11.73,9.83,15.31,16.3,12.35,22.52,1.66,50.33-13.99,68.95-8.84,10.34-21.43,20.73-36.12,19.42-19.7-1.73-24.93-24.08-21.56-40.27,3.35-17.88,12.13-35.77,22.77-50.71,7.95-11,20.53-20.89,33.45-13.77l.15.08ZM215.38,49.88c-8.79,4.53-16.33,15.88-21.36,25.02-9.34,17.91-21.24,42.95-10.34,61.91,6,9.98,17.44,9.71,26.55,3.87,17.47-11.74,27.61-31.59,30.48-51.7,1.43-10.64.29-23.29-7.06-31.59-4.63-5.47-11.18-11.08-18.17-7.56l-.11.05Z"/>
  <path class="cls-1" d="M140.05,62.41c5.5,2.73,10.13,8.22,13.23,13.63,10.67,18.83,1.43,42.09-12.09,57.66-7.64,8.65-18.52,17.34-31.21,16.24-17.02-1.45-21.54-20.14-18.63-33.67,2.9-14.96,10.48-29.92,19.68-42.4,6.87-9.2,17.74-17.47,28.9-11.52l.13.06ZM127.72,66.28c-7.6,3.79-14.11,13.28-18.46,20.92-8.07,14.98-18.35,35.92-8.93,51.78,5.19,8.34,15.07,8.12,22.94,3.23,15.1-9.82,23.85-26.41,26.34-43.23,1.23-8.9.25-19.48-6.1-26.42-4-4.58-9.66-9.26-15.7-6.32l-.09.04Z"/>
</svg>